<svg xmlns="http://www.w3.org/2000/svg" width="1016" height="818" viewBox="0 0 1016 818">
<g>
<path d="M 533.56 730.82 C528.09,736.97 523.33,742.00 522.97,742.00 C522.41,742.00 522.33,676.91 522.83,632.37 L 523.00 617.23 L 531.24 616.03 C542.09,614.44 560.21,609.69 569.51,605.99 C585.51,599.64 603.36,589.43 616.39,579.17 C639.87,560.69 658.77,537.03 670.55,511.39 C681.46,487.61 686.01,470.13 688.54,442.28 L 689.20 435.06 L 712.50 434.50 L 712.41 417.50 C712.29,393.62 709.35,375.88 701.82,353.50 C698.20,342.73 690.30,325.16 684.74,315.50 C670.51,290.77 641.07,261.66 616.34,247.86 C613.13,246.07 610.17,244.13 609.77,243.55 C609.36,242.97 609.02,242.81 609.02,243.19 C609.01,243.57 604.39,241.70 598.75,239.03 C593.11,236.36 584.26,232.79 579.08,231.09 C568.40,227.59 547.68,223.00 542.54,223.00 C540.66,223.00 538.86,222.58 538.54,222.07 C537.49,220.37 558.04,197.22 572.50,183.81 C606.52,152.28 636.26,131.29 676.50,110.43 C713.29,91.36 750.42,77.69 791.53,68.09 C806.37,64.62 838.27,59.46 851.25,58.42 L 860.00 57.72 L 860.00 528.93 L 857.96 530.02 C856.84,530.62 855.03,530.83 853.94,530.48 C851.99,529.86 851.99,529.83 854.06,528.16 C855.96,526.62 856.16,525.39 856.21,514.98 C856.70,419.67 855.73,61.95 854.98,61.49 C854.44,61.16 847.87,61.38 840.38,61.97 C829.78,62.82 825.60,63.59 821.62,65.42 C818.80,66.72 813.35,68.35 809.50,69.03 C805.65,69.71 800.25,70.93 797.50,71.73 C794.75,72.53 788.90,73.58 784.50,74.06 C771.88,75.43 762.75,76.97 761.58,77.90 C760.99,78.38 758.92,79.07 757.00,79.45 C753.21,80.18 746.88,82.98 745.88,84.36 C745.53,84.83 743.96,85.34 742.38,85.48 C737.57,85.94 728.34,89.97 725.19,92.98 C723.92,94.20 721.44,95.41 719.69,95.68 C717.93,95.95 715.60,96.97 714.50,97.94 C711.52,100.57 709.08,101.33 703.00,101.53 C698.80,101.67 695.85,102.60 690.50,105.44 C686.65,107.49 682.83,109.75 682.00,110.47 C679.68,112.48 671.64,116.43 670.36,116.18 C669.73,116.06 667.28,118.00 664.91,120.48 C662.46,123.05 659.69,125.00 658.50,125.00 C657.34,125.00 654.86,126.12 653.00,127.50 C651.14,128.88 649.27,130.00 648.86,130.00 C647.76,130.00 639.23,135.79 634.00,140.10 C631.53,142.13 626.05,145.39 621.83,147.35 C616.90,149.64 613.93,151.64 613.51,152.96 C613.15,154.09 611.58,155.68 610.01,156.49 C608.45,157.30 605.22,159.74 602.83,161.91 C598.36,165.98 591.45,170.97 590.21,171.03 C588.78,171.10 585.24,174.67 584.60,176.69 C584.24,177.83 582.67,180.06 581.12,181.63 C577.14,185.68 565.03,196.31 563.03,197.50 C561.15,198.62 555.79,204.58 551.54,210.28 C549.99,212.35 548.48,213.82 548.19,213.53 C547.51,212.84 544.00,216.00 544.00,217.29 C544.00,219.21 547.55,220.94 551.55,220.97 C553.78,220.99 556.13,221.53 556.78,222.18 C558.07,223.47 568.48,225.24 573.84,225.08 C575.90,225.02 580.71,226.68 586.34,229.39 C591.38,231.81 596.21,234.02 597.08,234.30 C597.95,234.58 601.32,236.52 604.58,238.62 C607.84,240.72 612.97,243.70 616.00,245.25 C626.07,250.42 630.96,253.58 635.97,258.18 C638.69,260.69 642.22,262.99 643.80,263.31 C649.01,264.35 663.46,278.46 670.48,289.36 C672.29,292.19 674.73,295.58 675.89,296.90 C677.05,298.22 678.01,300.02 678.01,300.90 C678.02,301.78 680.27,305.88 683.01,310.00 C690.11,320.69 690.30,320.96 692.35,323.34 C694.88,326.30 698.61,333.83 699.44,337.67 C699.81,339.41 700.77,341.08 701.56,341.39 C702.42,341.72 703.00,343.30 703.00,345.35 C703.00,347.22 703.66,349.31 704.47,349.98 C705.28,350.65 706.22,352.84 706.56,354.85 C706.89,356.86 707.58,359.85 708.08,361.50 C708.58,363.15 709.23,367.81 709.52,371.85 C709.82,375.89 710.72,380.78 711.52,382.71 C713.02,386.30 713.90,392.52 714.53,404.00 C714.72,407.58 715.36,412.07 715.94,413.99 C716.52,415.91 717.00,421.09 716.99,425.49 L 716.99 433.50 L 713.32 436.00 C710.56,437.89 707.93,438.62 702.59,439.00 L 695.53 439.50 L 694.96 443.00 C694.64,444.92 693.65,447.62 692.75,449.00 C691.86,450.38 690.16,456.45 688.98,462.50 C685.80,478.88 684.16,485.09 681.93,489.21 C680.82,491.25 679.65,495.30 679.32,498.21 C678.63,504.30 669.06,525.00 666.93,525.00 C666.42,525.00 665.99,526.24 665.98,527.75 C665.97,529.82 664.26,532.17 659.10,537.23 C655.32,540.93 651.92,545.18 651.54,546.68 C651.17,548.18 649.96,550.04 648.87,550.81 C647.77,551.57 646.45,553.31 645.94,554.66 C645.37,556.15 644.55,556.84 643.85,556.41 C643.13,555.96 642.96,556.13 643.41,556.86 C643.81,557.51 642.79,559.65 641.06,561.74 C639.38,563.78 638.00,566.10 638.00,566.89 C638.00,567.69 637.71,568.04 637.35,567.68 C636.64,566.97 632.00,571.56 632.00,572.98 C632.00,573.99 629.22,575.01 625.39,575.42 C623.95,575.57 621.37,577.10 619.64,578.83 C605.04,593.39 597.68,599.51 594.48,599.76 C592.64,599.91 588.29,601.37 584.81,603.01 C581.34,604.65 577.19,606.00 575.58,606.00 C573.97,606.00 571.95,606.60 571.08,607.33 C570.21,608.07 565.92,609.95 561.53,611.51 C555.81,613.56 552.65,615.37 550.30,617.93 C547.41,621.08 546.79,621.35 545.03,620.25 C542.44,618.63 540.00,618.65 540.00,620.29 C540.00,621.63 538.45,621.98 531.00,622.30 L 526.50 622.50 L 526.20 629.48 C525.98,634.54 525.62,636.05 524.89,634.98 C524.18,633.94 524.05,634.98 524.43,638.50 C526.69,659.25 527.12,672.37 526.03,687.28 C524.67,705.79 525.74,716.74 529.25,720.25 L 531.33 722.33 L 529.17 723.13 C527.92,723.60 527.00,724.80 527.00,725.97 C527.00,728.37 529.79,728.72 530.67,726.42 C531.00,725.56 532.35,724.44 533.68,723.93 C535.00,723.43 536.85,721.69 537.78,720.06 C538.72,718.43 541.20,716.13 543.30,714.95 C545.83,713.53 548.95,710.06 552.56,704.65 C555.61,700.09 560.04,694.96 562.64,693.00 C565.19,691.08 568.00,688.69 568.89,687.70 C569.77,686.71 572.45,684.93 574.84,683.73 C579.60,681.34 584.49,675.86 585.52,671.76 C585.90,670.26 587.95,667.95 590.33,666.32 C592.61,664.77 595.98,662.02 597.82,660.20 C599.66,658.39 603.49,655.84 606.33,654.53 C609.17,653.22 611.36,651.84 611.19,651.45 C611.01,651.06 611.75,650.24 612.82,649.62 C618.04,646.60 626.14,639.64 627.51,636.98 C628.36,635.34 629.51,634.00 630.06,634.00 C630.61,634.00 632.00,632.42 633.13,630.50 C634.57,628.06 635.92,627.00 637.58,627.00 C639.00,627.00 640.60,626.01 641.57,624.53 C642.99,622.37 655.96,614.00 657.90,614.00 C659.48,614.00 664.00,608.27 664.00,606.27 C664.00,603.21 668.57,600.00 672.94,600.00 C675.29,600.00 677.84,599.10 680.01,597.50 C682.00,596.03 684.13,595.22 685.17,595.55 C687.02,596.14 694.87,592.07 697.12,589.35 C697.84,588.49 699.34,587.37 700.46,586.84 C701.58,586.32 704.30,584.79 706.50,583.44 C708.70,582.09 712.19,580.20 714.25,579.24 C716.31,578.29 718.26,576.69 718.58,575.70 C718.90,574.71 721.63,572.81 724.63,571.48 C727.64,570.15 731.26,568.15 732.69,567.03 C734.11,565.91 736.09,565.00 737.09,565.00 C738.09,565.00 740.55,563.89 742.56,562.53 C744.56,561.17 747.84,559.76 749.85,559.40 C751.86,559.03 755.27,557.90 757.44,556.87 C761.81,554.79 766.37,554.39 765.79,556.12 C765.59,556.74 760.71,559.36 754.96,561.94 C740.45,568.46 720.34,578.65 708.76,585.36 C703.40,588.46 698.34,591.00 697.51,591.00 C696.68,591.00 696.00,591.45 696.00,592.00 C696.00,592.55 695.33,593.00 694.50,593.00 C693.67,593.00 693.00,593.45 693.00,594.00 C693.00,594.55 692.33,595.00 691.50,595.00 C690.67,595.00 690.00,595.37 690.00,595.83 C690.00,596.29 684.98,599.97 678.85,604.01 C655.60,619.33 622.03,645.48 598.00,666.98 C591.12,673.13 584.76,678.46 583.85,678.83 C581.85,679.64 547.41,715.24 533.56,730.82 ZM 556.75 747.59 C550.01,751.85 543.49,755.98 542.25,756.78 C541.01,757.58 540.00,757.90 540.00,757.49 C540.00,755.86 558.63,735.43 576.50,717.48 C601.30,692.57 623.40,674.23 651.59,655.19 C686.63,631.53 735.61,607.46 778.00,593.08 C805.61,583.71 843.03,573.85 869.50,568.98 C889.60,565.27 892.68,563.98 895.75,557.98 L 898.00 553.58 L 898.00 356.66 C898.00,162.30 898.03,159.69 899.98,156.54 C902.16,153.00 904.24,151.85 914.50,148.50 C924.92,145.09 929.08,144.05 928.49,145.02 C927.47,146.66 917.48,151.77 914.00,152.41 C909.90,153.18 902.38,158.18 902.76,159.90 C902.91,160.55 902.53,162.00 901.93,163.13 C901.16,164.56 900.87,187.53 900.96,240.17 C901.04,291.75 900.75,314.96 900.04,314.52 C899.45,314.16 899.00,314.79 899.00,316.00 C899.00,317.16 899.41,317.87 899.90,317.56 C900.43,317.23 900.85,357.78 900.93,416.41 C901.03,495.05 900.79,515.90 899.80,516.23 C898.86,516.55 898.80,517.49 899.57,520.07 C900.20,522.20 900.31,528.62 899.87,537.00 C898.69,559.41 898.31,562.31 896.31,563.71 C895.31,564.41 893.24,566.13 891.69,567.53 C889.63,569.40 887.90,570.03 885.19,569.91 C883.16,569.82 880.22,570.25 878.66,570.88 C877.09,571.51 871.69,572.74 866.66,573.62 C861.62,574.49 854.12,575.84 850.00,576.62 C845.88,577.40 837.24,578.89 830.82,579.94 C824.39,581.00 818.24,582.34 817.13,582.93 C816.03,583.52 813.86,584.01 812.32,584.03 C810.77,584.05 808.63,584.72 807.56,585.53 C806.49,586.34 804.79,587.00 803.79,587.00 C802.78,587.00 798.26,588.75 793.73,590.89 C774.60,599.93 771.97,601.00 768.96,601.00 C767.22,601.00 763.48,602.17 760.65,603.61 C757.82,605.04 753.70,606.36 751.50,606.54 C749.30,606.71 745.70,607.54 743.50,608.38 C741.30,609.22 738.96,609.93 738.29,609.96 C737.63,609.98 734.81,611.34 732.02,612.99 C729.24,614.63 725.81,616.26 724.41,616.61 C723.01,616.96 721.33,618.10 720.69,619.13 C720.05,620.16 718.58,621.00 717.43,621.00 C716.29,621.00 714.31,622.10 713.05,623.45 C711.78,624.79 709.43,626.19 707.82,626.54 C706.20,626.89 703.32,628.75 701.41,630.66 C699.25,632.81 696.58,634.36 694.38,634.71 C692.42,635.03 690.59,635.90 690.31,636.64 C690.02,637.39 689.23,638.00 688.54,638.00 C687.86,638.00 685.38,639.39 683.04,641.09 C680.69,642.78 676.64,644.81 674.04,645.58 C671.43,646.36 667.35,648.53 664.98,650.40 C662.61,652.28 660.13,653.60 659.47,653.35 C658.80,653.09 657.62,653.47 656.84,654.19 C655.29,655.61 653.10,657.11 648.61,659.78 C647.03,660.73 644.42,662.74 642.83,664.25 C641.24,665.76 639.33,667.00 638.61,667.00 C637.88,667.00 635.76,668.65 633.89,670.67 C625.54,679.73 619.68,685.00 617.97,685.00 C616.95,685.00 615.32,686.35 614.34,688.00 C613.37,689.65 612.14,691.00 611.61,691.00 C611.09,691.00 609.95,691.64 609.08,692.42 C608.21,693.20 606.85,693.99 606.05,694.17 C605.26,694.35 599.13,700.01 592.44,706.75 C585.75,713.49 579.56,719.00 578.70,719.00 C577.84,719.00 576.85,719.91 576.50,721.01 C576.14,722.12 575.44,722.77 574.93,722.46 C574.42,722.14 574.00,722.61 574.00,723.50 C574.00,724.39 573.60,724.87 573.11,724.57 C572.62,724.26 571.15,725.40 569.86,727.08 C568.56,728.77 566.06,731.80 564.30,733.83 C561.63,736.90 561.32,737.72 562.44,738.85 C563.56,739.98 564.37,739.92 567.48,738.44 C569.51,737.48 571.48,735.97 571.84,735.09 C572.20,734.22 573.17,733.36 574.00,733.19 C577.79,732.41 584.22,728.54 584.96,726.60 C585.41,725.42 587.06,723.85 588.64,723.10 C595.34,719.91 599.65,717.55 601.88,715.83 C603.19,714.83 606.08,713.52 608.31,712.92 C610.54,712.32 613.79,710.74 615.53,709.41 C617.27,708.09 619.52,707.00 620.54,707.00 C621.56,707.00 623.54,705.91 624.95,704.57 C627.70,701.96 636.81,698.00 640.08,698.00 C641.18,698.00 643.07,697.08 644.27,695.96 C645.48,694.84 647.59,693.70 648.98,693.43 C653.76,692.48 661.50,689.71 663.04,688.39 C663.89,687.66 666.14,686.97 668.04,686.85 C669.94,686.74 671.95,686.33 672.50,685.94 C673.05,685.55 674.90,684.93 676.61,684.57 C678.32,684.20 680.96,682.61 682.48,681.02 C684.22,679.20 686.21,678.17 687.87,678.21 C689.32,678.25 692.25,677.10 694.39,675.64 C696.53,674.19 699.08,673.00 700.06,673.00 C701.04,673.00 703.11,672.35 704.67,671.56 C710.19,668.76 717.90,666.00 720.21,666.00 C721.50,666.00 723.55,665.30 724.77,664.45 C725.99,663.60 729.52,662.48 732.63,661.98 C735.74,661.47 739.13,660.28 740.18,659.34 C741.44,658.20 743.44,657.69 746.08,657.85 C751.33,658.16 761.87,656.14 764.91,654.25 C767.61,652.56 778.76,649.74 779.91,650.45 C780.91,651.06 788.48,648.66 793.68,646.09 C795.98,644.95 801.61,643.32 806.18,642.46 C810.76,641.61 817.20,640.27 820.50,639.48 C823.80,638.69 831.45,637.80 837.50,637.49 C849.50,636.89 862.55,635.19 865.13,633.88 C866.03,633.43 871.20,632.81 876.63,632.51 C882.06,632.20 889.88,631.53 894.00,631.01 C898.12,630.48 903.53,629.84 906.00,629.56 C908.47,629.29 913.42,628.12 917.00,626.97 C922.32,625.24 925.85,624.88 936.50,624.95 C951.08,625.04 953.28,624.39 956.09,619.11 C957.82,615.86 957.90,606.40 957.81,404.61 C957.73,203.73 957.86,184.40 959.52,165.46 C960.35,155.95 958.21,146.49 954.43,142.94 C951.62,140.29 944.13,140.08 938.39,142.48 C934.20,144.23 929.49,144.62 932.00,143.00 C932.83,142.47 936.59,141.08 940.36,139.90 C952.20,136.21 959.70,138.65 962.00,146.93 C962.64,149.25 962.98,232.12 962.97,383.00 C962.96,606.48 962.88,615.66 961.12,619.50 C957.31,627.80 955.14,628.57 930.23,630.49 C882.29,634.19 855.22,637.90 811.50,646.74 C798.85,649.30 787.04,651.33 785.25,651.27 C783.46,651.20 782.00,651.54 782.00,652.03 C782.00,652.52 780.09,653.42 777.75,654.02 C751.29,660.83 712.30,673.04 691.50,681.03 C685.45,683.35 679.71,685.22 678.75,685.19 C677.79,685.15 677.00,685.55 677.00,686.06 C677.00,686.58 675.88,687.00 674.50,687.00 C673.12,687.00 672.00,687.42 672.00,687.93 C672.00,688.44 669.58,689.76 666.62,690.87 C651.87,696.39 615.68,713.53 595.03,724.79 C590.37,727.33 585.70,729.47 584.65,729.54 C583.60,729.62 582.02,730.58 581.12,731.68 C579.02,734.27 571.86,738.56 570.25,738.20 C569.56,738.04 569.00,738.35 569.00,738.88 C569.00,739.42 563.49,743.34 556.75,747.59 ZM 461.39 751.28 C463.53,753.90 465.07,756.26 464.81,756.53 C464.55,756.79 461.78,755.21 458.66,753.02 C450.76,747.49 428.12,734.03 410.70,724.50 C402.66,720.10 396.06,716.18 396.04,715.80 C395.94,713.91 403.72,716.30 406.52,719.02 C408.21,720.66 410.64,722.00 411.92,722.00 C413.19,722.00 416.84,723.58 420.02,725.51 C423.20,727.45 427.90,729.95 430.46,731.08 C433.03,732.22 435.58,734.18 436.16,735.46 C436.75,736.74 438.18,738.25 439.36,738.84 C440.54,739.42 442.90,740.82 444.62,741.96 C447.54,743.90 447.82,743.92 449.12,742.32 C449.88,741.38 449.99,740.92 449.36,741.30 C448.68,741.71 447.99,741.08 447.65,739.74 C447.34,738.51 445.55,736.67 443.67,735.66 C441.79,734.65 438.87,732.57 437.20,731.03 C435.52,729.50 432.15,727.28 429.71,726.10 C424.09,723.38 421.22,720.38 422.76,718.84 C423.57,718.03 423.30,716.97 421.76,714.89 C418.41,710.36 408.32,700.00 407.26,700.00 C406.73,700.00 405.21,698.76 403.90,697.25 C402.58,695.74 400.62,694.35 399.55,694.16 C397.23,693.76 390.14,687.74 377.83,675.75 C372.90,670.94 368.24,667.00 367.48,667.00 C366.73,667.00 365.53,666.19 364.81,665.21 C363.20,663.01 357.42,658.89 355.56,658.61 C354.82,658.50 353.59,657.90 352.84,657.28 C352.09,656.66 348.84,655.16 345.62,653.96 C342.40,652.76 338.95,650.95 337.94,649.94 C336.93,648.93 334.76,647.41 333.12,646.56 C331.48,645.72 329.89,644.23 329.58,643.26 C328.56,640.08 313.55,632.47 303.39,630.00 C301.13,629.45 297.53,627.79 295.39,626.32 C293.25,624.85 290.03,623.52 288.24,623.37 C284.61,623.05 277.38,617.79 276.42,614.75 C275.92,613.17 275.21,612.93 272.51,613.43 C269.93,613.92 268.60,613.54 266.36,611.67 C262.89,608.79 258.79,606.49 257.69,606.81 C257.24,606.94 255.67,606.42 254.19,605.66 C247.15,602.03 241.68,600.00 238.93,600.00 C236.30,600.00 225.64,596.62 212.50,591.61 C210.30,590.77 206.93,590.07 205.00,590.04 C203.07,590.01 200.15,589.19 198.50,588.20 C196.85,587.21 193.25,585.58 190.50,584.57 C187.75,583.56 185.07,582.35 184.55,581.87 C184.03,581.39 182.59,581.00 181.35,581.00 C179.17,581.00 172.20,579.30 165.00,577.01 C161.80,575.99 146.43,573.86 131.50,572.36 C122.35,571.43 108.94,566.61 106.28,563.28 C105.05,561.75 103.32,559.67 102.43,558.65 C100.96,556.98 100.94,556.09 102.26,549.15 C103.52,542.55 103.64,515.50 103.11,351.67 C102.51,165.28 102.46,161.81 100.56,160.42 C99.49,159.64 97.51,159.00 96.15,159.00 C94.47,159.00 92.22,157.40 89.09,154.00 C86.56,151.25 84.02,149.00 83.44,149.00 C82.08,149.00 61.13,142.14 58.98,140.99 C57.05,139.96 50.96,141.82 48.24,144.29 C45.61,146.66 43.77,154.76 44.53,160.60 C44.87,163.30 45.24,266.82 45.33,390.65 C45.50,611.85 45.53,615.83 47.44,617.93 C50.36,621.16 57.88,624.24 63.50,624.52 C70.96,624.89 91.21,626.95 93.50,627.58 C97.67,628.73 115.82,631.15 123.50,631.58 C127.90,631.82 136.23,632.51 142.00,633.11 C170.72,636.08 174.48,636.71 182.00,639.86 C186.12,641.58 190.82,642.99 192.43,643.00 C195.48,643.00 199.89,644.21 206.19,646.76 C208.39,647.65 210.96,647.98 212.57,647.57 C214.12,647.18 217.22,647.53 219.88,648.39 C222.42,649.22 228.55,650.40 233.50,651.01 C244.29,652.35 261.53,656.43 263.00,658.00 C264.09,659.15 274.97,664.00 276.48,664.00 C277.36,664.00 279.75,664.84 281.79,665.87 C286.25,668.13 294.05,670.35 303.43,672.04 C310.09,673.25 319.57,677.40 323.28,680.76 C324.26,681.64 326.73,683.14 328.78,684.10 C335.34,687.17 329.81,686.11 320.00,682.42 C287.95,670.37 254.47,660.15 222.00,652.53 C215.68,651.05 209.82,649.59 209.00,649.28 C208.18,648.98 206.59,648.61 205.48,648.46 C204.36,648.31 197.39,647.02 189.98,645.60 C150.04,637.93 117.07,633.70 64.00,629.43 C52.95,628.54 45.28,624.50 42.94,618.34 C42.36,616.83 42.00,525.26 42.00,381.84 C42.00,362.20 42.00,344.17 41.99,327.61 C41.96,153.85 41.96,142.06 46.21,140.25 C46.92,139.94 47.76,139.92 48.73,139.46 C53.78,137.06 58.30,137.87 80.00,145.03 C100.38,151.75 102.20,152.65 105.04,157.30 C106.96,160.44 106.99,164.00 107.00,358.17 L 107.00 555.85 L 109.62 558.96 C113.36,563.41 116.96,564.96 128.40,567.05 C171.23,574.89 212.56,586.17 244.50,598.73 C279.85,612.63 298.16,621.28 325.00,636.75 C343.14,647.20 370.00,664.76 370.00,666.16 C370.00,666.65 371.01,667.44 372.25,667.91 C375.95,669.31 389.71,679.92 403.54,692.02 C416.74,703.58 447.08,733.59 446.80,734.82 C446.72,735.19 449.09,737.97 452.07,741.00 C455.06,744.03 459.25,748.65 461.39,751.28 ZM 203.47 543.04 C203.15,543.57 202.80,543.97 202.69,543.93 C193.54,540.73 169.53,534.45 157.14,532.02 C151.45,530.90 146.39,529.74 145.89,529.43 C145.37,529.11 145.00,430.50 145.00,292.81 L 145.00 56.74 L 148.75 57.34 C150.81,57.67 157.00,58.43 162.50,59.03 C216.15,64.91 273.63,82.36 325.46,108.50 C342.67,117.18 371.13,134.10 371.83,136.07 C372.02,136.58 372.63,137.00 373.21,137.00 C373.78,137.00 378.35,139.77 383.37,143.16 C405.78,158.27 432.09,181.36 453.53,204.71 C469.23,221.81 487.59,245.24 486.58,246.87 C486.29,247.33 482.56,248.01 478.28,248.38 C474.00,248.75 466.80,249.86 462.29,250.86 C453.20,252.85 451.28,252.52 453.82,249.40 C454.97,247.99 457.69,246.95 462.50,246.10 C475.96,243.72 479.25,243.16 479.35,242.26 C479.38,241.97 479.08,241.64 478.69,241.21 C478.65,241.17 478.61,241.13 478.58,241.08 C477.71,240.13 477.00,239.00 477.00,238.57 C477.00,238.15 475.20,235.76 473.00,233.26 C470.80,230.76 468.99,228.44 468.98,228.11 C468.96,227.77 466.28,225.70 463.02,223.50 C459.75,221.30 456.57,218.30 455.95,216.82 C454.57,213.56 452.17,211.33 449.50,210.83 C448.15,210.57 447.59,209.79 447.78,208.42 C447.93,207.30 446.93,204.84 445.54,202.94 C444.16,201.05 442.56,198.35 441.98,196.95 C440.73,193.86 429.76,184.00 427.59,184.00 C426.74,184.00 425.27,182.76 424.32,181.25 C421.96,177.47 420.09,175.73 416.00,173.47 C414.08,172.40 411.15,170.34 409.50,168.88 C407.85,167.42 405.48,165.91 404.23,165.54 C402.99,165.16 399.07,161.96 395.54,158.43 C389.54,152.43 387.12,151.19 382.75,151.88 C382.34,151.95 382.00,151.28 382.00,150.39 C382.00,148.56 372.84,138.13 369.62,136.29 C368.45,135.62 366.48,135.05 365.23,135.04 C363.98,135.02 360.98,133.18 358.56,130.95 C356.14,128.72 352.94,126.68 351.44,126.40 C348.34,125.84 345.03,124.32 336.50,119.55 C326.01,113.69 322.65,112.00 321.47,112.00 C320.83,112.00 319.50,111.10 318.50,110.00 C317.50,108.90 316.04,108.00 315.25,108.00 C314.45,108.00 312.56,106.68 311.05,105.06 C309.13,103.00 307.05,101.96 304.14,101.61 C299.37,101.03 298.00,100.38 298.00,98.66 C298.00,97.10 290.22,94.77 285.84,95.02 C280.71,95.30 280.29,95.18 277.41,92.50 C274.74,90.03 270.00,89.07 270.00,91.00 C270.00,91.55 269.21,91.99 268.25,91.98 C266.86,91.97 266.79,91.79 267.88,91.09 C268.95,90.42 268.72,90.05 266.88,89.48 C265.57,89.07 263.31,87.90 261.85,86.87 C260.39,85.84 258.70,85.00 258.10,85.00 C257.49,85.00 256.10,84.10 255.00,83.00 C253.90,81.90 252.31,81.00 251.46,81.00 C250.61,81.00 248.11,80.08 245.90,78.95 C240.91,76.40 219.34,72.03 208.00,71.27 C203.32,70.96 198.55,70.08 197.39,69.33 C195.59,68.15 189.43,66.51 179.00,64.42 C177.62,64.15 175.60,63.62 174.50,63.25 C172.44,62.56 171.85,62.49 163.69,61.94 C161.05,61.77 158.66,61.26 158.38,60.81 C157.32,59.08 150.02,59.98 147.90,62.10 C145.55,64.45 145.55,64.99 148.00,99.00 C149.00,112.86 149.02,120.09 148.06,133.73 C147.40,143.21 147.17,151.47 147.56,152.10 C147.95,152.72 148.39,235.64 148.54,336.37 C148.69,437.09 148.97,520.85 149.16,522.50 C149.46,525.16 149.92,525.53 153.17,525.81 C155.19,525.97 157.39,526.76 158.05,527.56 C158.86,528.54 161.27,529.00 165.55,529.00 C170.81,529.00 172.34,529.41 174.82,531.50 C176.45,532.88 178.94,534.00 180.34,534.00 C181.75,534.00 185.01,535.12 187.60,536.50 C190.18,537.88 193.60,539.00 195.20,539.00 C198.73,539.00 204.29,541.72 203.47,543.04 ZM 438.28 607.60 C437.90,609.18 433.55,609.13 431.95,607.53 C431.10,606.68 427.19,605.36 423.25,604.61 C417.50,603.52 415.09,602.44 410.92,599.13 C408.07,596.86 405.21,595.00 404.56,595.00 C403.43,595.00 396.63,589.56 388.75,582.35 C386.69,580.46 385.00,579.16 385.00,579.45 C385.00,579.74 382.55,578.41 379.55,576.49 C376.55,574.57 373.42,573.00 372.58,573.00 C369.98,573.00 364.20,567.10 361.42,561.60 C359.95,558.70 357.20,554.57 355.30,552.42 C352.13,548.82 350.07,545.27 349.45,542.35 C349.00,540.22 340.71,528.54 337.50,525.50 C335.75,523.85 333.05,520.25 331.50,517.50 C329.94,514.75 328.41,512.28 328.09,512.00 C327.76,511.73 327.35,510.83 327.17,510.00 C327.00,509.17 326.43,508.35 325.92,508.17 C325.42,507.98 325.00,506.85 325.00,505.65 C325.00,504.45 324.13,501.84 323.06,499.86 C321.95,497.78 321.37,495.31 321.69,494.06 C322.09,492.56 321.47,491.05 319.71,489.19 C317.05,486.38 316.19,481.52 314.43,459.11 C314.06,454.49 312.87,446.84 311.77,442.11 C310.66,437.37 309.79,431.92 309.83,430.00 C310.01,419.58 310.96,412.14 312.49,409.19 C313.43,407.37 314.43,403.99 314.70,401.69 C314.97,399.39 316.05,395.00 317.10,391.93 C318.14,388.87 319.00,384.91 319.00,383.13 C319.00,381.36 319.76,378.46 320.69,376.70 C322.32,373.60 323.51,368.31 324.68,359.05 C324.98,356.61 326.00,353.46 326.93,352.05 C327.87,350.65 329.55,348.14 330.67,346.48 C331.80,344.82 333.03,342.48 333.41,341.28 C333.79,340.08 334.98,338.82 336.05,338.48 C337.12,338.14 338.00,337.06 338.00,336.08 C338.00,334.28 341.70,329.63 343.72,328.89 C344.31,328.68 346.66,325.80 348.93,322.50 C355.19,313.44 357.25,310.76 360.31,307.74 C361.85,306.22 362.84,304.56 362.52,304.04 C362.20,303.51 363.19,302.29 364.72,301.31 C368.36,298.97 370.00,297.37 370.00,296.14 C370.00,295.59 373.03,291.95 376.74,288.04 C382.17,282.32 384.22,280.83 387.32,280.33 C389.85,279.93 391.52,279.00 392.19,277.61 C393.34,275.22 401.37,269.00 403.31,269.00 C404.01,269.00 406.36,268.08 408.54,266.96 C410.72,265.84 413.62,264.77 415.00,264.59 C416.38,264.40 418.74,263.92 420.25,263.51 C425.19,262.20 423.16,263.90 414.25,268.52 C401.68,275.03 396.70,278.25 386.00,286.78 C374.52,295.93 364.44,305.95 356.01,316.58 C352.56,320.94 349.27,324.80 348.69,325.17 C348.11,325.54 347.55,326.44 347.43,327.17 C347.31,327.90 345.29,331.65 342.93,335.50 C318.83,374.87 310.52,423.65 320.05,469.86 C323.91,488.56 334.82,516.01 343.45,528.70 C344.80,530.70 345.68,532.71 345.40,533.17 C345.11,533.63 345.28,534.00 345.78,534.00 C346.27,534.00 349.77,538.16 353.55,543.25 C366.23,560.30 387.59,579.74 405.78,590.80 C414.90,596.34 428.84,603.36 434.93,605.47 C436.89,606.15 438.40,607.11 438.28,607.60 ZM 483.00 679.71 C483.00,713.97 482.65,742.00 482.23,742.00 C481.80,742.00 478.60,738.58 475.12,734.41 C463.30,720.25 441.12,697.28 425.78,683.33 C404.28,663.77 380.82,643.48 372.00,636.82 C367.88,633.70 361.12,628.53 357.00,625.31 C341.15,612.98 317.60,597.17 300.50,587.39 C293.90,583.62 288.22,580.15 287.89,579.68 C287.55,579.21 286.98,578.88 286.63,578.93 C285.74,579.08 280.00,576.07 280.00,575.46 C280.00,574.60 285.43,576.21 287.00,577.52 C287.83,578.21 289.93,579.08 291.68,579.45 C293.43,579.82 295.40,580.77 296.05,581.56 C298.21,584.16 307.52,588.90 313.56,590.47 C316.82,591.32 319.68,592.55 319.90,593.20 C320.60,595.29 324.46,598.38 332.75,603.48 C337.20,606.22 340.62,608.80 340.36,609.23 C340.10,609.65 340.25,610.00 340.69,610.00 C341.14,610.00 342.81,611.13 344.41,612.50 C346.00,613.88 347.68,615.00 348.12,615.00 C348.57,615.00 350.41,616.28 352.22,617.85 C354.02,619.42 357.08,621.45 359.00,622.36 C360.92,623.27 364.08,625.50 366.00,627.32 C367.92,629.13 370.99,631.49 372.82,632.56 C374.64,633.63 376.80,635.90 377.62,637.62 C378.43,639.33 381.22,642.22 383.80,644.04 C386.39,645.87 389.17,647.94 390.00,648.65 C394.87,652.86 398.96,655.80 402.37,657.53 C404.49,658.61 406.91,660.51 407.73,661.75 C408.56,662.99 409.82,664.00 410.53,664.00 C412.08,664.00 437.00,688.95 437.00,690.50 C437.00,692.06 445.03,697.99 447.98,698.61 C453.44,699.76 455.06,700.89 454.63,703.27 C454.33,704.93 455.46,706.91 458.75,710.50 C461.24,713.21 463.91,716.93 464.67,718.75 C465.43,720.58 467.17,722.49 468.53,723.01 C469.89,723.53 471.00,724.59 471.00,725.37 C471.00,726.15 471.70,727.06 472.56,727.39 C473.44,727.72 473.81,728.50 473.41,729.15 C472.95,729.88 473.13,730.04 473.89,729.57 C474.55,729.16 475.70,729.33 476.44,729.95 C478.47,731.64 479.40,713.85 478.20,696.52 C477.56,687.44 477.57,678.69 478.20,671.52 C479.20,660.25 478.72,628.23 477.50,624.35 C477.01,622.81 475.77,622.05 473.16,621.69 C467.28,620.87 456.98,618.03 454.65,616.58 C453.47,615.84 451.34,614.97 449.92,614.64 C447.84,614.16 438.71,607.98 440.11,608.01 C440.33,608.01 445.23,609.35 451.00,610.98 C456.77,612.62 466.34,614.73 472.25,615.68 L 483.00 617.42 ZM 787.89 548.29 C787.55,548.78 785.81,549.28 784.03,549.40 C781.13,549.61 780.97,549.49 782.58,548.31 C783.57,547.59 784.96,547.00 785.66,547.00 C787.15,547.00 795.96,541.16 797.59,539.10 C798.20,538.33 799.22,538.02 799.87,538.42 C801.26,539.28 807.85,537.32 810.09,535.37 C811.10,534.49 812.78,534.21 814.72,534.59 C816.54,534.96 819.12,534.60 821.13,533.71 C826.40,531.36 836.73,529.65 844.22,529.88 C847.09,529.97 847.81,530.34 847.36,531.50 C847.05,532.33 846.11,533.00 845.28,533.00 C842.80,533.00 816.31,539.85 804.22,543.61 C798.02,545.55 791.94,547.19 790.72,547.27 C789.50,547.34 788.22,547.80 787.89,548.29 ZM 275.87 571.12 C277.17,572.76 278.07,574.26 277.87,574.45 C277.67,574.65 275.25,573.66 272.50,572.25 C262.23,567.01 237.07,556.09 224.50,551.42 C217.35,548.76 211.37,546.28 211.20,545.90 C211.04,545.52 210.03,545.44 208.95,545.72 C207.83,546.02 207.00,545.73 207.00,545.06 C207.00,544.41 206.55,544.16 206.00,544.50 C205.45,544.84 205.00,544.61 205.00,543.99 C205.00,543.32 205.81,543.12 207.00,543.50 C208.11,543.85 210.02,544.27 211.25,544.44 C212.49,544.60 214.18,545.00 215.00,545.33 C220.36,547.43 229.30,550.00 231.28,550.00 C232.56,550.00 234.49,550.66 235.56,551.47 C236.63,552.28 238.31,552.95 239.29,552.97 C240.27,552.99 242.84,553.90 245.00,555.00 C247.16,556.10 250.51,557.00 252.46,557.00 C254.41,557.00 256.79,557.69 257.75,558.54 C262.33,562.55 265.97,565.01 269.57,566.50 C271.73,567.40 274.57,569.48 275.87,571.12 ZM 393.61 712.53 C394.52,713.92 395.10,715.23 394.89,715.43 C394.67,715.63 389.66,713.36 383.74,710.38 C377.81,707.40 365.21,701.55 355.74,697.37 C346.26,693.18 338.07,689.37 337.55,688.88 C335.38,686.87 342.25,688.19 348.50,691.00 C352.18,692.65 356.31,694.00 357.69,694.00 C359.07,694.00 361.49,694.93 363.09,696.06 C364.68,697.20 367.55,698.38 369.46,698.69 C371.37,699.00 374.64,700.66 376.72,702.38 C381.26,706.15 388.17,710.00 390.36,710.00 C391.24,710.00 392.70,711.14 393.61,712.53 ZM 434.60 258.20 C434.10,258.03 433.31,258.48 432.86,259.20 C432.40,259.91 432.03,260.05 432.03,259.50 C432.03,257.43 433.67,256.15 439.50,253.70 C445.03,251.38 451.00,250.99 451.00,252.94 C451.00,253.79 435.90,258.63 434.60,258.20 ZM 807.36 77.36 C804.81,77.71 802.11,78.00 801.36,78.00 C799.65,78.00 799.55,75.03 801.25,74.93 C803.96,74.78 808.09,74.11 810.00,73.50 C811.53,73.01 812.00,73.32 812.00,74.80 C812.00,76.34 811.06,76.86 807.36,77.36 ZM 712.00 661.00 C712.00,662.33 711.33,663.00 710.00,663.00 C708.67,663.00 708.00,662.33 708.00,661.00 C708.00,659.67 708.67,659.00 710.00,659.00 C711.33,659.00 712.00,659.67 712.00,661.00 ZM 452.50 623.17 C452.50,623.81 451.89,624.54 451.15,624.78 C450.31,625.06 449.94,624.61 450.15,623.56 C450.54,621.69 452.50,621.36 452.50,623.17 ZM 321.00 498.00 C321.00,498.55 320.30,499.00 319.44,499.00 C318.58,499.00 318.16,498.55 318.50,498.00 C318.84,497.45 319.54,497.00 320.06,497.00 C320.58,497.00 321.00,497.45 321.00,498.00 ZM 452.50 245.00 C452.84,245.55 452.42,246.00 451.56,246.00 C450.70,246.00 450.00,245.55 450.00,245.00 C450.00,244.45 450.42,244.00 450.94,244.00 C451.46,244.00 452.16,244.45 452.50,245.00 Z" fill="rgb(61,41,96)"/>
<path d="M 203.47 543.04 C204.29,541.72 198.73,539.00 195.20,539.00 C193.60,539.00 190.18,537.88 187.60,536.50 C185.01,535.12 181.75,534.00 180.34,534.00 C178.94,534.00 176.45,532.88 174.82,531.50 C172.34,529.41 170.81,529.00 165.55,529.00 C161.27,529.00 158.86,528.54 158.05,527.56 C157.39,526.76 155.19,525.97 153.17,525.81 C149.92,525.53 149.46,525.16 149.16,522.50 C148.97,520.85 148.69,437.09 148.54,336.37 C148.39,235.64 147.95,152.72 147.56,152.10 C147.17,151.47 147.40,143.21 148.06,133.73 C149.02,120.09 149.00,112.86 148.00,99.00 C145.55,64.99 145.55,64.45 147.90,62.10 C150.02,59.98 157.32,59.08 158.38,60.81 C158.66,61.26 161.05,61.77 163.69,61.94 C171.85,62.49 172.44,62.56 174.50,63.25 C175.60,63.62 177.62,64.15 179.00,64.42 C189.43,66.51 195.59,68.15 197.39,69.33 C198.55,70.08 203.32,70.96 208.00,71.27 C219.34,72.03 240.91,76.40 245.90,78.95 C248.11,80.08 250.61,81.00 251.46,81.00 C252.31,81.00 253.90,81.90 255.00,83.00 C256.10,84.10 257.49,85.00 258.10,85.00 C258.70,85.00 260.39,85.84 261.85,86.87 C263.31,87.90 265.57,89.07 266.88,89.48 C268.72,90.05 268.95,90.42 267.88,91.09 C266.79,91.79 266.86,91.97 268.25,91.98 C269.21,91.99 270.00,91.55 270.00,91.00 C270.00,89.07 274.74,90.03 277.41,92.50 C280.29,95.18 280.71,95.30 285.84,95.02 C290.22,94.77 298.00,97.10 298.00,98.66 C298.00,100.38 299.37,101.03 304.14,101.61 C307.05,101.96 309.13,103.00 311.05,105.06 C312.56,106.68 314.45,108.00 315.25,108.00 C316.04,108.00 317.50,108.90 318.50,110.00 C319.50,111.10 320.83,112.00 321.47,112.00 C322.65,112.00 326.01,113.69 336.50,119.55 C345.03,124.32 348.34,125.84 351.44,126.40 C352.94,126.68 356.14,128.72 358.56,130.95 C360.98,133.18 363.98,135.02 365.23,135.04 C366.48,135.05 368.45,135.62 369.62,136.29 C372.84,138.13 382.00,148.56 382.00,150.39 C382.00,151.28 382.34,151.95 382.75,151.88 C387.12,151.19 389.54,152.43 395.54,158.43 C399.07,161.96 402.99,165.16 404.23,165.54 C405.48,165.91 407.85,167.42 409.50,168.88 C411.15,170.34 414.08,172.40 416.00,173.47 C420.09,175.73 421.96,177.47 424.32,181.25 C425.27,182.76 426.74,184.00 427.59,184.00 C429.76,184.00 440.73,193.86 441.98,196.95 C442.56,198.35 444.16,201.05 445.54,202.94 C446.93,204.84 447.93,207.30 447.78,208.42 C447.59,209.79 448.15,210.57 449.50,210.83 C452.17,211.33 454.57,213.56 455.95,216.82 C456.57,218.30 459.75,221.30 463.02,223.50 C466.28,225.70 468.96,227.77 468.98,228.11 C468.99,228.44 470.80,230.76 473.00,233.26 C475.20,235.76 477.00,238.15 477.00,238.57 C477.00,239.00 477.71,240.13 478.58,241.08 C478.61,241.13 478.65,241.17 478.69,241.21 C479.08,241.64 479.38,241.97 479.35,242.26 C479.25,243.16 475.96,243.72 462.50,246.10 C457.69,246.95 454.97,247.99 453.82,249.40 C451.28,252.52 453.20,252.85 462.29,250.86 C464.26,250.42 466.74,249.97 469.26,249.56 C460.94,250.99 451.55,253.41 442.28,256.54 C438.68,257.75 435.10,258.88 432.55,259.61 C432.64,259.51 432.75,259.37 432.86,259.20 C433.31,258.48 434.10,258.03 434.60,258.20 C435.90,258.63 451.00,253.79 451.00,252.94 C451.00,250.99 445.03,251.38 439.50,253.70 C433.67,256.15 432.03,257.43 432.03,259.50 C432.03,259.61 432.05,259.69 432.07,259.75 C430.66,260.15 429.62,260.40 429.17,260.46 C427.89,260.61 425.60,261.66 424.09,262.77 C423.64,263.11 422.90,263.59 421.96,264.16 C423.61,262.99 423.04,262.77 420.25,263.51 C418.74,263.92 416.38,264.40 415.00,264.59 C413.62,264.77 410.72,265.84 408.54,266.96 C406.36,268.08 404.01,269.00 403.31,269.00 C401.37,269.00 393.34,275.22 392.19,277.61 C391.52,279.00 389.85,279.93 387.32,280.33 C384.22,280.83 382.17,282.32 376.74,288.04 C373.03,291.95 370.00,295.59 370.00,296.14 C370.00,297.37 368.36,298.97 364.72,301.31 C363.19,302.29 362.20,303.51 362.52,304.04 C362.84,304.56 361.85,306.22 360.31,307.74 C357.25,310.76 355.19,313.44 348.93,322.50 C346.66,325.80 344.31,328.68 343.72,328.89 C341.70,329.63 338.00,334.28 338.00,336.08 C338.00,337.06 337.12,338.14 336.05,338.48 C334.98,338.82 333.79,340.08 333.41,341.28 C333.03,342.48 331.80,344.82 330.67,346.48 C329.55,348.14 327.87,350.65 326.93,352.05 C326.00,353.46 324.98,356.61 324.68,359.05 C323.51,368.31 322.32,373.60 320.69,376.70 C319.76,378.46 319.00,381.36 319.00,383.13 C319.00,384.91 318.14,388.87 317.10,391.93 C316.05,395.00 314.97,399.39 314.70,401.69 C314.43,403.99 313.43,407.37 312.49,409.19 C310.96,412.14 310.01,419.58 309.83,430.00 C309.79,431.92 310.66,437.37 311.77,442.11 C312.87,446.84 314.06,454.49 314.43,459.11 C316.19,481.52 317.05,486.38 319.71,489.19 C321.47,491.05 322.09,492.56 321.69,494.06 C321.37,495.31 321.95,497.78 323.06,499.86 C324.13,501.84 325.00,504.45 325.00,505.65 C325.00,506.85 325.42,507.98 325.92,508.17 C326.43,508.35 327.00,509.17 327.17,510.00 C327.35,510.83 327.76,511.73 328.09,512.00 C328.41,512.28 329.94,514.75 331.50,517.50 C333.05,520.25 335.75,523.85 337.50,525.50 C340.71,528.54 349.00,540.22 349.45,542.35 C350.07,545.27 352.13,548.82 355.30,552.42 C357.20,554.57 359.95,558.70 361.42,561.60 C364.20,567.10 369.98,573.00 372.58,573.00 C373.42,573.00 376.55,574.57 379.55,576.49 C382.55,578.41 385.00,579.74 385.00,579.45 C385.00,579.16 386.69,580.46 388.75,582.35 C396.63,589.56 403.43,595.00 404.56,595.00 C405.21,595.00 408.07,596.86 410.92,599.13 C415.09,602.44 417.50,603.52 423.25,604.61 C427.19,605.36 431.10,606.68 431.95,607.53 C433.55,609.13 437.90,609.18 438.28,607.60 C438.40,607.11 436.89,606.15 434.93,605.47 C431.61,604.32 425.96,601.71 420.03,598.68 C431.50,604.34 443.81,609.02 455.88,612.26 C454.10,611.82 452.43,611.39 451.00,610.98 C445.23,609.35 440.33,608.01 440.11,608.01 C438.71,607.98 447.84,614.16 449.92,614.64 C451.34,614.97 453.47,615.84 454.65,616.58 C456.98,618.03 467.28,620.87 473.16,621.69 C475.77,622.05 477.01,622.81 477.50,624.35 C478.72,628.23 479.20,660.25 478.20,671.52 C477.57,678.69 477.56,687.44 478.20,696.52 C479.40,713.85 478.47,731.64 476.44,729.95 C475.70,729.33 474.55,729.16 473.89,729.57 C473.13,730.04 472.95,729.88 473.41,729.15 C473.81,728.50 473.44,727.72 472.56,727.39 C471.70,727.06 471.00,726.15 471.00,725.37 C471.00,724.59 469.89,723.53 468.53,723.01 C467.17,722.49 465.43,720.58 464.67,718.75 C463.91,716.93 461.24,713.21 458.75,710.50 C455.46,706.91 454.33,704.93 454.63,703.27 C455.06,700.89 453.44,699.76 447.98,698.61 C445.03,697.99 437.00,692.06 437.00,690.50 C437.00,688.95 412.08,664.00 410.53,664.00 C409.82,664.00 408.56,662.99 407.73,661.75 C406.91,660.51 404.49,658.61 402.37,657.53 C398.96,655.80 394.87,652.86 390.00,648.65 C389.17,647.94 386.39,645.87 383.80,644.04 C381.22,642.22 378.43,639.33 377.62,637.62 C376.80,635.90 374.64,633.63 372.82,632.56 C370.99,631.49 367.92,629.13 366.00,627.32 C364.08,625.50 360.92,623.27 359.00,622.36 C357.08,621.45 354.02,619.42 352.22,617.85 C350.41,616.28 348.57,615.00 348.12,615.00 C347.68,615.00 346.00,613.88 344.41,612.50 C342.81,611.13 341.14,610.00 340.69,610.00 C340.25,610.00 340.10,609.65 340.36,609.23 C340.62,608.80 337.20,606.22 332.75,603.48 C324.46,598.38 320.60,595.29 319.90,593.20 C319.68,592.55 316.82,591.32 313.56,590.47 C307.52,588.90 298.21,584.16 296.05,581.56 C295.40,580.77 293.43,579.82 291.68,579.45 C289.93,579.08 287.83,578.21 287.00,577.52 C285.43,576.21 280.00,574.60 280.00,575.46 C280.00,576.07 285.74,579.08 286.63,578.93 C286.98,578.88 287.55,579.21 287.89,579.68 C288.17,580.08 292.33,582.65 297.63,585.74 C284.78,578.50 270.87,571.39 257.02,564.99 C263.24,567.78 268.83,570.38 272.50,572.25 C275.25,573.66 277.67,574.65 277.87,574.45 C278.07,574.26 277.17,572.76 275.87,571.12 C274.57,569.48 271.73,567.40 269.57,566.50 C265.97,565.01 262.33,562.55 257.75,558.54 C256.79,557.69 254.41,557.00 252.46,557.00 C250.51,557.00 247.16,556.10 245.00,555.00 C242.84,553.90 240.27,552.99 239.29,552.97 C238.31,552.95 236.63,552.28 235.56,551.47 C234.49,550.66 232.56,550.00 231.28,550.00 C229.30,550.00 220.36,547.43 215.00,545.33 C214.18,545.00 212.49,544.60 211.25,544.44 C210.02,544.27 208.11,543.85 207.00,543.50 C205.81,543.12 205.00,543.32 205.00,543.99 C205.00,544.61 205.45,544.84 206.00,544.50 C206.55,544.16 207.00,544.41 207.00,545.06 C207.00,545.17 207.02,545.28 207.07,545.37 C198.54,542.61 189.74,540.00 181.28,537.72 C189.92,539.99 198.14,542.34 202.69,543.93 C202.80,543.97 203.15,543.57 203.47,543.04 ZM 787.89 548.29 C788.22,547.80 789.50,547.34 790.72,547.27 C791.94,547.19 798.02,545.55 804.22,543.61 C814.67,540.36 835.87,534.80 843.04,533.35 C825.04,537.33 797.96,545.09 782.00,550.97 C777.33,552.70 772.83,554.22 772.00,554.37 C771.17,554.51 766.52,556.51 761.65,558.82 C760.65,559.29 759.68,559.74 758.77,560.17 C762.72,558.25 765.63,556.60 765.79,556.12 C766.37,554.39 761.81,554.79 757.44,556.87 C755.27,557.90 751.86,559.03 749.85,559.40 C747.84,559.76 744.56,561.17 742.56,562.53 C740.55,563.89 738.09,565.00 737.09,565.00 C736.09,565.00 734.11,565.91 732.69,567.03 C731.26,568.15 727.64,570.15 724.63,571.48 C721.63,572.81 718.90,574.71 718.58,575.70 C718.26,576.69 716.31,578.29 714.25,579.24 C712.19,580.20 708.70,582.09 706.50,583.44 C704.30,584.79 701.58,586.32 700.46,586.84 C699.34,587.37 697.84,588.49 697.12,589.35 C694.87,592.07 687.02,596.14 685.17,595.55 C684.13,595.22 682.00,596.03 680.01,597.50 C677.84,599.10 675.29,600.00 672.94,600.00 C668.57,600.00 664.00,603.21 664.00,606.27 C664.00,608.27 659.48,614.00 657.90,614.00 C655.96,614.00 642.99,622.37 641.57,624.53 C640.60,626.01 639.00,627.00 637.58,627.00 C635.92,627.00 634.57,628.06 633.13,630.50 C632.00,632.42 630.61,634.00 630.06,634.00 C629.51,634.00 628.36,635.34 627.51,636.98 C626.14,639.64 618.04,646.60 612.82,649.62 C611.75,650.24 611.01,651.06 611.19,651.45 C611.36,651.84 609.17,653.22 606.33,654.53 C603.49,655.84 599.66,658.39 597.82,660.20 C595.98,662.02 592.61,664.77 590.33,666.32 C587.95,667.95 585.90,670.26 585.52,671.76 C584.49,675.86 579.60,681.34 574.84,683.73 C572.45,684.93 569.77,686.71 568.89,687.70 C568.00,688.69 565.19,691.08 562.64,693.00 C560.04,694.96 555.61,700.09 552.56,704.65 C548.95,710.06 545.83,713.53 543.30,714.95 C541.20,716.13 538.72,718.43 537.78,720.06 C536.85,721.69 535.00,723.43 533.68,723.93 C532.35,724.44 531.00,725.56 530.67,726.42 C529.79,728.72 527.00,728.37 527.00,725.97 C527.00,724.80 527.92,723.60 529.17,723.13 L 531.33 722.33 L 529.25 720.25 C525.74,716.74 524.67,705.79 526.03,687.28 C527.12,672.37 526.69,659.25 524.43,638.50 C524.05,634.98 524.18,633.94 524.89,634.98 C525.62,636.05 525.98,634.54 526.20,629.48 L 526.50 622.50 L 531.00 622.30 C538.45,621.98 540.00,621.63 540.00,620.29 C540.00,618.65 542.44,618.63 545.03,620.25 C546.79,621.35 547.41,621.08 550.30,617.93 C552.65,615.37 555.81,613.56 561.53,611.51 C565.92,609.95 570.21,608.07 571.08,607.33 C571.95,606.60 573.97,606.00 575.58,606.00 C577.19,606.00 581.34,604.65 584.81,603.01 C588.29,601.37 592.64,599.91 594.48,599.76 C597.68,599.51 605.04,593.39 619.64,578.83 C621.37,577.10 623.95,575.57 625.39,575.42 C629.22,575.01 632.00,573.99 632.00,572.98 C632.00,571.56 636.64,566.97 637.35,567.68 C637.71,568.04 638.00,567.69 638.00,566.89 C638.00,566.10 639.38,563.78 641.06,561.74 C642.79,559.65 643.81,557.51 643.41,556.86 C642.96,556.13 643.13,555.96 643.85,556.41 C644.55,556.84 645.37,556.15 645.94,554.66 C646.45,553.31 647.77,551.57 648.87,550.81 C649.96,550.04 651.17,548.18 651.54,546.68 C651.92,545.18 655.32,540.93 659.10,537.23 C664.26,532.17 665.97,529.82 665.98,527.75 C665.99,526.24 666.42,525.00 666.93,525.00 C669.06,525.00 678.63,504.30 679.32,498.21 C679.65,495.30 680.82,491.25 681.93,489.21 C684.16,485.09 685.80,478.88 688.98,462.50 C690.16,456.45 691.86,450.38 692.75,449.00 C693.65,447.62 694.64,444.92 694.96,443.00 L 695.53 439.50 L 702.59 439.00 C707.93,438.62 710.56,437.89 713.32,436.00 L 716.99 433.50 L 716.99 425.49 C717.00,421.09 716.52,415.91 715.94,413.99 C715.36,412.07 714.72,407.58 714.53,404.00 C713.90,392.52 713.02,386.30 711.52,382.71 C710.72,380.78 709.82,375.89 709.52,371.85 C709.23,367.81 708.58,363.15 708.08,361.50 C707.58,359.85 706.89,356.86 706.56,354.85 C706.22,352.84 705.28,350.65 704.47,349.98 C703.66,349.31 703.00,347.22 703.00,345.35 C703.00,343.30 702.42,341.72 701.56,341.39 C700.77,341.08 699.81,339.41 699.44,337.67 C698.61,333.83 694.88,326.30 692.35,323.34 C690.30,320.96 690.11,320.69 683.01,310.00 C680.27,305.88 678.02,301.78 678.01,300.90 C678.01,300.02 677.05,298.22 675.89,296.90 C674.73,295.58 672.29,292.19 670.48,289.36 C663.46,278.46 649.01,264.35 643.80,263.31 C642.22,262.99 638.69,260.69 635.97,258.18 C630.96,253.58 626.07,250.42 616.00,245.25 C612.97,243.70 607.84,240.72 604.58,238.62 C601.32,236.52 597.95,234.58 597.08,234.30 C596.21,234.02 591.38,231.81 586.34,229.39 C580.71,226.68 575.90,225.02 573.84,225.08 C568.48,225.24 558.07,223.47 556.78,222.18 C556.13,221.53 553.78,220.99 551.55,220.97 C547.55,220.94 544.00,219.21 544.00,217.29 C544.00,216.00 547.51,212.84 548.19,213.53 C548.48,213.82 549.99,212.35 551.54,210.28 C555.79,204.58 561.15,198.62 563.03,197.50 C565.03,196.31 577.14,185.68 581.12,181.63 C582.67,180.06 584.24,177.83 584.60,176.69 C585.24,174.67 588.78,171.10 590.21,171.03 C591.45,170.97 598.36,165.98 602.83,161.91 C605.22,159.74 608.45,157.30 610.01,156.49 C611.58,155.68 613.15,154.09 613.51,152.96 C613.93,151.64 616.90,149.64 621.83,147.35 C626.05,145.39 631.53,142.13 634.00,140.10 C639.23,135.79 647.76,130.00 648.86,130.00 C649.27,130.00 651.14,128.88 653.00,127.50 C654.86,126.12 657.34,125.00 658.50,125.00 C659.69,125.00 662.46,123.05 664.91,120.48 C667.28,118.00 669.73,116.06 670.36,116.18 C671.64,116.43 679.68,112.48 682.00,110.47 C682.83,109.75 686.65,107.49 690.50,105.44 C695.85,102.60 698.80,101.67 703.00,101.53 C709.08,101.33 711.52,100.57 714.50,97.94 C715.60,96.97 717.93,95.95 719.69,95.68 C721.44,95.41 723.92,94.20 725.19,92.98 C728.34,89.97 737.57,85.94 742.38,85.48 C743.96,85.34 745.53,84.83 745.88,84.36 C746.88,82.98 753.21,80.18 757.00,79.45 C758.92,79.07 760.99,78.38 761.58,77.90 C762.75,76.97 771.88,75.43 784.50,74.06 C788.90,73.58 794.75,72.53 797.50,71.73 C800.25,70.93 805.65,69.71 809.50,69.03 C813.35,68.35 818.80,66.72 821.62,65.42 C825.60,63.59 829.78,62.82 840.38,61.97 C847.87,61.38 854.44,61.16 854.98,61.49 C855.73,61.95 856.70,419.67 856.21,514.98 C856.16,525.39 855.96,526.62 854.06,528.16 C851.99,529.83 851.99,529.86 853.94,530.48 C854.46,530.65 855.14,530.69 855.83,530.62 C854.22,531.05 852.09,531.54 850.00,531.92 C848.87,532.14 847.67,532.37 846.41,532.63 C846.83,532.36 847.19,531.95 847.36,531.50 C847.81,530.34 847.09,529.97 844.22,529.88 C836.73,529.65 826.40,531.36 821.13,533.71 C819.12,534.60 816.54,534.96 814.72,534.59 C812.78,534.21 811.10,534.49 810.09,535.37 C807.85,537.32 801.26,539.28 799.87,538.42 C799.22,538.02 798.20,538.33 797.59,539.10 C795.96,541.16 787.15,547.00 785.66,547.00 C784.96,547.00 783.57,547.59 782.58,548.31 C780.97,549.49 781.13,549.61 784.03,549.40 C785.81,549.28 787.55,548.78 787.89,548.29 ZM 393.61 712.53 C392.70,711.14 391.24,710.00 390.36,710.00 C388.17,710.00 381.26,706.15 376.72,702.38 C374.64,700.66 371.37,699.00 369.46,698.69 C367.55,698.38 364.68,697.20 363.09,696.06 C361.49,694.93 359.07,694.00 357.69,694.00 C356.31,694.00 352.18,692.65 348.50,691.00 C342.25,688.19 335.38,686.87 337.55,688.88 C337.94,689.24 342.58,691.46 348.85,694.29 C337.98,689.51 327.52,685.22 318.00,681.68 C313.02,679.83 308.07,678.03 303.15,676.30 C308.80,678.28 314.42,680.32 320.00,682.42 C329.81,686.11 335.34,687.17 328.78,684.10 C326.73,683.14 324.26,681.64 323.28,680.76 C319.57,677.40 310.09,673.25 303.43,672.04 C294.05,670.35 286.25,668.13 281.79,665.87 C279.75,664.84 277.36,664.00 276.48,664.00 C274.97,664.00 264.09,659.15 263.00,658.00 C261.53,656.43 244.29,652.35 233.50,651.01 C228.55,650.40 222.42,649.22 219.88,648.39 C217.22,647.53 214.12,647.18 212.57,647.57 C210.96,647.98 208.39,647.65 206.19,646.76 C199.89,644.21 195.48,643.00 192.43,643.00 C190.82,642.99 186.12,641.58 182.00,639.86 C174.48,636.71 170.72,636.08 142.00,633.11 C136.23,632.51 127.90,631.82 123.50,631.58 C115.82,631.15 97.67,628.73 93.50,627.58 C91.21,626.95 70.96,624.89 63.50,624.52 C57.88,624.24 50.36,621.16 47.44,617.93 C45.53,615.83 45.50,611.85 45.33,390.65 C45.24,266.82 44.87,163.30 44.53,160.60 C43.77,154.76 45.61,146.66 48.24,144.29 C50.96,141.82 57.05,139.96 58.98,140.99 C61.13,142.14 82.08,149.00 83.44,149.00 C84.02,149.00 86.56,151.25 89.09,154.00 C92.22,157.40 94.47,159.00 96.15,159.00 C97.51,159.00 99.49,159.64 100.56,160.42 C102.46,161.81 102.51,165.28 103.11,351.67 C103.64,515.50 103.52,542.55 102.26,549.15 C100.94,556.09 100.96,556.98 102.43,558.65 C103.32,559.67 105.05,561.75 106.28,563.28 C108.94,566.61 122.35,571.43 131.50,572.36 C146.43,573.86 161.80,575.99 165.00,577.01 C172.20,579.30 179.17,581.00 181.35,581.00 C182.59,581.00 184.03,581.39 184.55,581.87 C185.07,582.35 187.75,583.56 190.50,584.57 C193.25,585.58 196.85,587.21 198.50,588.20 C200.15,589.19 203.07,590.01 205.00,590.04 C206.93,590.07 210.30,590.77 212.50,591.61 C225.64,596.62 236.30,600.00 238.93,600.00 C241.68,600.00 247.15,602.03 254.19,605.66 C255.67,606.42 257.24,606.94 257.69,606.81 C258.79,606.49 262.89,608.79 266.36,611.67 C268.60,613.54 269.93,613.92 272.51,613.43 C275.21,612.93 275.92,613.17 276.42,614.75 C277.38,617.79 284.61,623.05 288.24,623.37 C290.03,623.52 293.25,624.85 295.39,626.32 C297.53,627.79 301.13,629.45 303.39,630.00 C313.55,632.47 328.56,640.08 329.58,643.26 C329.89,644.23 331.48,645.72 333.12,646.56 C334.76,647.41 336.93,648.93 337.94,649.94 C338.95,650.95 342.40,652.76 345.62,653.96 C348.84,655.16 352.09,656.66 352.84,657.28 C353.59,657.90 354.82,658.50 355.56,658.61 C357.42,658.89 363.20,663.01 364.81,665.21 C365.53,666.19 366.73,667.00 367.48,667.00 C368.24,667.00 372.90,670.94 377.83,675.75 C390.14,687.74 397.23,693.76 399.55,694.16 C400.62,694.35 402.58,695.74 403.90,697.25 C405.21,698.76 406.73,700.00 407.26,700.00 C408.32,700.00 418.41,710.36 421.76,714.89 C423.30,716.97 423.57,718.03 422.76,718.84 C421.22,720.38 424.09,723.38 429.71,726.10 C432.15,727.28 435.52,729.50 437.20,731.03 C438.87,732.57 441.79,734.65 443.67,735.66 C445.55,736.67 447.34,738.51 447.65,739.74 C447.99,741.08 448.68,741.71 449.36,741.30 C449.99,740.92 449.88,741.38 449.12,742.32 C447.82,743.92 447.54,743.90 444.62,741.96 C442.90,740.82 440.54,739.42 439.36,738.84 C438.18,738.25 436.75,736.74 436.16,735.46 C435.58,734.18 433.03,732.22 430.46,731.08 C427.90,729.95 423.20,727.45 420.02,725.51 C416.84,723.58 413.19,722.00 411.92,722.00 C410.64,722.00 408.21,720.66 406.52,719.02 C403.72,716.30 395.94,713.91 396.04,715.80 C396.05,716.13 401.04,719.14 407.63,722.81 C391.24,714.11 373.58,705.43 356.59,697.74 C365.96,701.89 377.99,707.49 383.74,710.38 C389.66,713.36 394.67,715.63 394.89,715.43 C395.10,715.23 394.52,713.92 393.61,712.53 ZM 935.21 141.65 C933.63,142.23 932.42,142.73 932.00,143.00 C929.49,144.62 934.20,144.23 938.39,142.48 C944.13,140.08 951.62,140.29 954.43,142.94 C958.21,146.49 960.35,155.95 959.52,165.46 C957.86,184.40 957.73,203.73 957.81,404.61 C957.90,606.40 957.82,615.86 956.09,619.11 C953.28,624.39 951.08,625.04 936.50,624.95 C925.85,624.88 922.32,625.24 917.00,626.97 C913.42,628.12 908.47,629.29 906.00,629.56 C903.53,629.84 898.12,630.48 894.00,631.01 C889.88,631.53 882.06,632.20 876.63,632.51 C871.20,632.81 866.03,633.43 865.13,633.88 C862.55,635.19 849.50,636.89 837.50,637.49 C831.45,637.80 823.80,638.69 820.50,639.48 C817.20,640.27 810.76,641.61 806.18,642.46 C801.61,643.32 795.98,644.95 793.68,646.09 C788.48,648.66 780.91,651.06 779.91,650.45 C778.76,649.74 767.61,652.56 764.91,654.25 C761.87,656.14 751.33,658.16 746.08,657.85 C743.44,657.69 741.44,658.20 740.18,659.34 C739.13,660.28 735.74,661.47 732.63,661.98 C729.52,662.48 725.99,663.60 724.77,664.45 C723.55,665.30 721.50,666.00 720.21,666.00 C717.90,666.00 710.19,668.76 704.67,671.56 C703.11,672.35 701.04,673.00 700.06,673.00 C699.08,673.00 696.53,674.19 694.39,675.64 C692.25,677.10 689.32,678.25 687.87,678.21 C686.21,678.17 684.22,679.20 682.48,681.02 C680.96,682.61 678.32,684.20 676.61,684.57 C674.90,684.93 673.05,685.55 672.50,685.94 C671.95,686.33 669.94,686.74 668.04,686.85 C666.14,686.97 663.89,687.66 663.04,688.39 C661.50,689.71 653.76,692.48 648.98,693.43 C647.59,693.70 645.48,694.84 644.27,695.96 C643.07,697.08 641.18,698.00 640.08,698.00 C636.81,698.00 627.70,701.96 624.95,704.57 C623.54,705.91 621.56,707.00 620.54,707.00 C619.52,707.00 617.27,708.09 615.53,709.41 C613.79,710.74 610.54,712.32 608.31,712.92 C606.08,713.52 603.19,714.83 601.88,715.83 C599.65,717.55 595.34,719.91 588.64,723.10 C587.06,723.85 585.41,725.42 584.96,726.60 C584.22,728.54 577.79,732.41 574.00,733.19 C573.17,733.36 572.20,734.22 571.84,735.09 C571.48,735.97 569.51,737.48 567.48,738.44 C564.37,739.92 563.56,739.98 562.44,738.85 C561.32,737.72 561.63,736.90 564.30,733.83 C566.06,731.80 568.56,728.77 569.86,727.08 C571.15,725.40 572.62,724.26 573.11,724.57 C573.60,724.87 574.00,724.39 574.00,723.50 C574.00,722.61 574.42,722.14 574.93,722.46 C575.44,722.77 576.14,722.12 576.50,721.01 C576.85,719.91 577.84,719.00 578.70,719.00 C579.56,719.00 585.75,713.49 592.44,706.75 C599.13,700.01 605.26,694.35 606.05,694.17 C606.85,693.99 608.21,693.20 609.08,692.42 C609.95,691.64 611.09,691.00 611.61,691.00 C612.14,691.00 613.37,689.65 614.34,688.00 C615.32,686.35 616.95,685.00 617.97,685.00 C619.68,685.00 625.54,679.73 633.89,670.67 C635.76,668.65 637.88,667.00 638.61,667.00 C639.33,667.00 641.24,665.76 642.83,664.25 C644.42,662.74 647.03,660.73 648.61,659.78 C653.10,657.11 655.29,655.61 656.84,654.19 C657.62,653.47 658.80,653.09 659.47,653.35 C660.13,653.60 662.61,652.28 664.98,650.40 C667.35,648.53 671.43,646.36 674.04,645.58 C676.64,644.81 680.69,642.78 683.04,641.09 C685.38,639.39 687.86,638.00 688.54,638.00 C689.23,638.00 690.02,637.39 690.31,636.64 C690.59,635.90 692.42,635.03 694.38,634.71 C696.58,634.36 699.25,632.81 701.41,630.66 C703.32,628.75 706.20,626.89 707.82,626.54 C709.43,626.19 711.78,624.79 713.05,623.45 C714.31,622.10 716.29,621.00 717.43,621.00 C718.58,621.00 720.05,620.16 720.69,619.13 C721.33,618.10 723.01,616.96 724.41,616.61 C725.81,616.26 729.24,614.63 732.02,612.99 C734.81,611.34 737.63,609.98 738.29,609.96 C738.96,609.93 741.30,609.22 743.50,608.38 C745.70,607.54 749.30,606.71 751.50,606.54 C753.70,606.36 757.82,605.04 760.65,603.61 C763.48,602.17 767.22,601.00 768.96,601.00 C771.97,601.00 774.60,599.93 793.73,590.89 C798.26,588.75 802.78,587.00 803.79,587.00 C804.79,587.00 806.49,586.34 807.56,585.53 C808.63,584.72 810.77,584.05 812.32,584.03 C813.86,584.01 816.03,583.52 817.13,582.93 C818.24,582.34 824.39,581.00 830.82,579.94 C837.24,578.89 845.88,577.40 850.00,576.62 C854.12,575.84 861.62,574.49 866.66,573.62 C871.69,572.74 877.09,571.51 878.66,570.88 C880.22,570.25 883.16,569.82 885.19,569.91 C887.90,570.03 889.63,569.40 891.69,567.53 C893.24,566.13 895.31,564.41 896.31,563.71 C898.31,562.31 898.69,559.41 899.87,537.00 C900.31,528.62 900.20,522.20 899.57,520.07 C898.80,517.49 898.86,516.55 899.80,516.23 C900.79,515.90 901.03,495.05 900.93,416.41 C900.85,357.78 900.43,317.23 899.90,317.56 C899.41,317.87 899.00,317.16 899.00,316.00 C899.00,314.79 899.45,314.16 900.04,314.52 C900.75,314.96 901.04,291.75 900.96,240.17 C900.87,187.53 901.16,164.56 901.93,163.13 C902.53,162.00 902.91,160.55 902.76,159.90 C902.38,158.18 909.90,153.18 914.00,152.41 C917.48,151.77 927.47,146.66 928.49,145.02 C929.05,144.10 925.32,144.99 916.00,148.01 C918.99,146.99 922.60,145.79 927.00,144.32 C930.16,143.27 932.87,142.39 935.21,141.65 ZM 807.36 77.36 C811.06,76.86 812.00,76.34 812.00,74.80 C812.00,73.32 811.53,73.01 810.00,73.50 C808.09,74.11 803.96,74.78 801.25,74.93 C799.55,75.03 799.65,78.00 801.36,78.00 C802.11,78.00 804.81,77.71 807.36,77.36 ZM 556.75 747.59 C563.49,743.34 569.00,739.42 569.00,738.88 C569.00,738.35 569.56,738.04 570.25,738.20 C571.86,738.56 579.02,734.27 581.12,731.68 C582.02,730.58 583.60,729.62 584.65,729.54 C585.70,729.47 590.37,727.33 595.03,724.79 C599.30,722.46 604.23,719.88 609.50,717.21 C591.29,726.70 573.15,737.24 553.50,749.65 C551.30,751.04 549.45,752.21 547.91,753.18 C550.46,751.57 553.58,749.60 556.75,747.59 ZM 319.49 396.74 C323.59,375.06 331.48,354.22 342.93,335.50 C345.29,331.65 347.31,327.90 347.43,327.17 C347.55,326.44 348.11,325.54 348.69,325.17 C349.18,324.86 351.65,322.00 354.51,318.46 C337.60,340.82 325.09,368.54 319.49,396.74 ZM 554.77 708.01 C568.50,693.61 582.59,679.34 583.85,678.83 C584.50,678.57 587.96,675.74 592.41,671.90 C579.23,683.74 566.55,695.88 554.77,708.01 ZM 605.35 660.52 C628.53,640.44 657.89,617.83 678.85,604.01 C684.98,599.97 690.00,596.29 690.00,595.83 C690.00,595.37 690.67,595.00 691.50,595.00 C692.33,595.00 693.00,594.55 693.00,594.00 C693.00,593.45 693.67,593.00 694.50,593.00 C695.33,593.00 696.00,592.55 696.00,592.00 C696.00,591.45 696.68,591.00 697.51,591.00 C698.23,591.00 702.18,589.07 706.73,586.51 C674.76,605.24 638.90,631.60 605.35,660.52 ZM 372.68 564.66 C365.39,557.61 358.74,550.23 353.55,543.25 C349.77,538.16 346.27,534.00 345.78,534.00 C345.28,534.00 345.11,533.63 345.40,533.17 C345.68,532.71 344.80,530.70 343.45,528.70 C340.32,524.10 336.89,517.55 333.60,510.19 C343.04,530.07 356.17,548.46 372.68,564.66 ZM 759.82 658.90 C766.16,657.10 772.23,655.44 777.75,654.02 C780.09,653.42 782.00,652.52 782.00,652.03 C782.00,651.54 783.46,651.20 785.25,651.27 C786.50,651.31 792.70,650.32 800.66,648.84 C787.21,651.75 773.54,655.12 759.82,658.90 ZM 712.00 661.00 C712.00,659.67 711.33,659.00 710.00,659.00 C708.67,659.00 708.00,659.67 708.00,661.00 C708.00,662.33 708.67,663.00 710.00,663.00 C711.33,663.00 712.00,662.33 712.00,661.00 ZM 586.99 233.99 C591.09,235.61 595.47,237.47 598.75,239.03 C604.39,241.70 609.01,243.57 609.02,243.19 C609.02,242.81 609.36,242.97 609.77,243.55 C610.17,244.13 613.13,246.07 616.34,247.86 C621.88,250.95 627.66,254.82 633.46,259.23 C632.48,258.50 631.49,257.77 630.50,257.06 C620.46,249.82 601.24,239.75 586.99,233.99 ZM 321.48 634.73 C342.20,646.41 362.06,659.34 380.83,673.42 C385.24,676.73 389.93,680.47 394.78,684.54 C384.29,675.81 375.16,669.01 372.25,667.91 C371.01,667.44 370.00,666.65 370.00,666.16 C370.00,664.76 343.14,647.20 325.00,636.75 C323.81,636.06 322.64,635.39 321.48,634.73 ZM 177.71 643.31 C143.64,637.30 106.73,632.88 64.00,629.43 C61.74,629.25 59.63,628.93 57.67,628.50 C59.63,628.93 61.74,629.25 64.00,629.43 C111.56,633.26 142.97,637.05 177.71,643.31 ZM 614.99 580.26 C638.36,562.11 658.82,536.92 670.55,511.39 C658.77,537.03 639.87,560.69 616.39,579.17 C615.93,579.53 615.46,579.89 614.99,580.26 ZM 670.16 689.31 C671.29,688.72 672.00,688.21 672.00,687.93 C672.00,687.42 673.12,687.00 674.50,687.00 C675.88,687.00 677.00,686.58 677.00,686.06 C677.00,685.55 677.79,685.15 678.75,685.19 C679.51,685.21 683.29,684.04 687.83,682.39 C681.90,684.64 676.01,686.94 670.16,689.31 ZM 213.02 67.70 C223.10,69.98 232.83,72.51 241.50,75.15 C272.77,84.66 299.61,95.24 325.81,108.68 C325.70,108.62 325.58,108.56 325.46,108.50 C289.64,90.43 251.11,76.52 213.02,67.70 ZM 459.99 749.61 C457.72,746.97 454.50,743.46 452.07,741.00 C449.09,737.97 446.72,735.19 446.80,734.82 C446.82,734.73 446.67,734.47 446.36,734.07 C451.24,739.38 455.83,744.61 459.99,749.61 ZM 452.50 623.17 C452.50,621.36 450.54,621.69 450.15,623.56 C449.94,624.61 450.31,625.06 451.15,624.78 C451.89,624.54 452.50,623.81 452.50,623.17 ZM 208.45 545.82 C208.61,545.80 208.78,545.77 208.95,545.72 C210.03,545.44 211.04,545.52 211.20,545.90 C211.34,546.22 215.71,548.07 221.42,550.26 C217.24,548.76 212.89,547.27 208.45,545.82 ZM 365.70 632.02 C368.00,633.78 370.24,635.49 372.00,636.82 C376.46,640.19 384.66,647.04 394.46,655.52 C385.36,647.74 376.66,640.65 365.70,632.02 ZM 321.00 498.00 C321.00,497.45 320.58,497.00 320.06,497.00 C319.54,497.00 318.84,497.45 318.50,498.00 C318.16,498.55 318.58,499.00 319.44,499.00 C320.30,499.00 321.00,498.55 321.00,498.00 ZM 452.50 245.00 C452.16,244.45 451.46,244.00 450.94,244.00 C450.42,244.00 450.00,244.45 450.00,245.00 C450.00,245.55 450.70,246.00 451.56,246.00 C452.42,246.00 452.84,245.55 452.50,245.00 ZM 671.59 296.52 C676.71,302.91 681.20,309.34 684.74,315.50 C685.29,316.45 685.86,317.48 686.45,318.57 C684.07,314.33 681.46,310.37 677.35,304.41 C675.50,301.73 673.58,299.10 671.59,296.52 ZM 368.75 133.53 C372.14,135.70 375.56,137.94 379.00,140.25 C379.49,140.58 379.98,140.91 380.48,141.24 C376.70,138.78 373.66,137.00 373.21,137.00 C372.63,137.00 372.02,136.58 371.83,136.07 C371.70,135.70 370.59,134.80 368.75,133.53 ZM 238.32 596.36 C250.16,600.71 261.84,605.44 273.33,610.55 C264.86,606.87 255.50,603.05 244.50,598.73 C242.48,597.93 240.42,597.14 238.32,596.36 ZM 212.23 650.16 C206.73,648.94 201.18,647.78 195.57,646.66 C200.62,647.61 204.65,648.35 205.48,648.46 C206.59,648.61 208.18,648.98 209.00,649.28 C209.34,649.41 210.52,649.73 212.23,650.16 ZM 412.42 165.34 C426.68,177.28 440.42,190.43 453.53,204.71 C440.92,190.97 426.62,177.33 412.42,165.34 ZM 708.03 375.39 C711.04,388.81 712.33,401.84 712.41,417.50 C712.33,402.49 710.95,388.79 708.03,375.39 ZM 593.51 594.36 C585.59,598.86 577.33,602.89 569.51,605.99 C576.05,603.40 585.49,598.78 593.51,594.36 ZM 411.70 699.45 C419.03,706.19 426.42,713.34 433.51,720.56 C426.76,713.81 418.56,705.86 411.70,699.45 ZM 378.91 292.70 C381.21,290.69 383.57,288.72 386.00,286.78 C387.62,285.49 389.11,284.32 390.51,283.25 C387.36,285.71 383.68,288.74 378.91,292.70 ZM 717.54 580.48 C723.30,577.37 729.91,573.97 736.48,570.71 C729.97,574.00 722.75,577.72 717.54,580.48 ZM 522.96 741.99 C522.95,742.00 522.94,742.00 522.93,742.00 C522.63,742.00 522.48,720.77 522.50,694.53 C522.49,720.56 522.65,741.44 522.96,741.99 ZM 554.05 224.74 C562.24,226.40 572.54,228.95 579.08,231.09 C579.40,231.20 579.74,231.31 580.09,231.43 C579.85,231.35 579.61,231.27 579.38,231.20 C572.40,228.94 562.15,226.39 554.05,224.74 ZM 477.71 616.56 L 483.00 617.30 L 483.00 617.42 ZM 533.56 730.82 C535.45,728.69 537.74,726.18 540.27,723.44 C539.81,723.94 539.35,724.44 538.90,724.95 C536.87,727.20 534.92,729.35 533.11,731.32 C533.26,731.15 533.41,730.99 533.56,730.82 ZM 540.88 757.51 C540.31,757.82 540.10,757.87 540.03,757.79 C539.99,757.74 539.99,757.66 540.00,757.55 C540.00,757.52 540.00,757.48 540.00,757.44 C540.00,756.65 544.72,751.08 551.63,743.51 C544.70,751.11 540.00,756.67 540.00,757.49 C540.00,757.73 540.35,757.72 540.88,757.51 ZM 418.49 676.73 C420.93,678.93 423.37,681.13 425.78,683.33 C432.85,689.76 441.37,698.10 449.65,706.61 C441.36,698.10 432.84,689.76 425.78,683.34 C423.23,681.02 420.81,678.83 418.49,676.73 ZM 692.40 680.68 C695.95,679.33 699.98,677.87 704.37,676.34 C700.37,677.76 696.38,679.21 692.40,680.68 ZM 902.70 153.42 C901.54,154.29 900.77,155.26 899.98,156.54 C900.78,155.24 901.39,154.33 902.70,153.42 ZM 458.66 753.02 C461.77,755.21 464.54,756.78 464.81,756.53 C464.54,756.78 461.89,755.29 458.92,753.21 C458.49,752.91 458.06,752.61 457.62,752.31 C457.99,752.56 458.33,752.80 458.66,753.02 ZM 951.22 138.27 C950.45,138.22 949.64,138.21 948.80,138.26 C949.68,138.19 950.46,138.21 951.22,138.27 ZM 333.65 608.39 C335.32,609.54 336.99,610.69 338.63,611.84 C337.06,610.75 335.40,609.60 333.65,608.39 ZM 655.95 695.24 C657.48,694.57 658.94,693.95 660.32,693.38 C658.85,694.00 657.40,694.62 655.95,695.24 Z" fill="rgb(64,40,110)"/>
<path d="M 530.50 588.54 C521.19,590.51 491.81,591.38 482.50,589.96 C458.30,586.26 438.69,579.47 420.45,568.47 C383.91,546.42 358.08,512.11 347.58,471.69 C343.58,456.33 342.72,447.51 343.23,427.22 C343.74,406.74 346.18,392.79 352.02,376.94 C355.16,368.42 362.71,352.96 366.83,346.60 C376.75,331.28 393.63,313.61 408.75,302.74 C432.27,285.82 464.09,274.75 492.00,273.79 L 500.50 273.50 L 501.01 434.00 L 579.42 434.00 C622.55,434.00 658.55,434.27 659.42,434.61 C661.48,435.40 661.51,442.64 659.52,455.76 C654.62,488.06 640.19,517.31 617.59,540.78 C593.37,565.93 565.77,581.06 530.50,588.54 ZM 685.50 401.75 L 686.12 409.00 L 526.00 409.00 L 526.00 328.00 C526.00,248.68 526.04,247.00 527.93,247.00 C528.99,247.00 533.38,247.47 537.68,248.04 C589.83,254.96 634.06,283.90 661.64,329.14 C675.31,351.56 683.25,375.72 685.50,401.75 Z" fill="rgb(93,113,131)"/>
<path d="M 0.00 409.00 L 0.00 0.00 L 508.00 0.00 L 1016.00 0.00 L 1016.00 409.00 L 1016.00 818.00 L 508.00 818.00 L 0.00 818.00 L 0.00 409.00 ZM 553.50 749.65 C592.14,725.24 624.98,708.06 663.87,691.90 C712.48,671.69 765.00,655.67 814.00,646.10 C857.18,637.66 883.95,634.07 930.23,630.49 C955.14,628.57 957.31,627.80 961.12,619.50 C962.88,615.66 962.96,606.48 962.97,383.00 C962.98,232.12 962.64,149.25 962.00,146.93 C960.54,141.68 956.96,138.79 951.28,138.28 C947.35,137.92 943.02,139.00 927.00,144.32 C903.10,152.27 902.43,152.57 899.98,156.54 C898.03,159.69 898.00,162.30 898.00,356.66 L 898.00 553.58 L 895.75 557.98 C892.68,563.98 889.60,565.27 869.50,568.98 C843.03,573.85 805.61,583.71 778.00,593.08 C735.61,607.46 686.63,631.53 651.59,655.19 C623.40,674.23 601.30,692.57 576.50,717.48 C558.89,735.17 540.00,755.85 540.00,757.44 C540.00,758.22 539.24,758.66 553.50,749.65 ZM 461.52 751.46 C440.03,725.23 405.89,692.22 380.83,673.42 C325.00,631.54 259.51,599.79 190.50,581.13 C169.36,575.42 149.46,570.91 128.40,567.05 C116.96,564.96 113.36,563.41 109.62,558.96 L 107.00 555.85 L 107.00 358.17 C106.99,164.00 106.96,160.44 105.04,157.30 C102.20,152.65 100.38,151.75 80.00,145.03 C58.30,137.87 53.78,137.06 48.73,139.46 C41.41,142.93 42.00,121.55 42.00,381.84 C42.00,525.26 42.36,616.83 42.94,618.34 C45.28,624.50 52.95,628.54 64.00,629.43 C169.06,637.91 238.97,652.29 318.00,681.68 C362.51,698.23 427.47,731.21 458.92,753.21 C461.90,755.30 464.55,756.79 464.81,756.53 C465.07,756.26 463.59,753.98 461.52,751.46 ZM 483.00 679.65 L 483.00 617.30 L 474.60 616.13 C447.30,612.31 415.53,599.16 393.50,582.56 C338.32,540.98 310.32,478.84 317.06,412.86 C321.72,367.14 345.81,320.23 378.62,292.94 C395.84,278.62 399.02,276.43 413.42,268.93 C417.78,266.66 422.58,263.89 424.09,262.77 C425.60,261.66 427.89,260.61 429.17,260.46 C430.45,260.30 436.35,258.54 442.28,256.54 C455.21,252.17 468.37,249.20 478.56,248.34 C482.69,247.99 486.30,247.33 486.58,246.87 C487.59,245.24 469.22,221.80 453.53,204.71 C430.45,179.57 405.44,157.94 379.00,140.25 C333.75,109.97 293.82,91.06 241.50,75.15 C218.21,68.07 187.20,61.74 162.50,59.03 C157.00,58.43 150.81,57.67 148.75,57.34 L 145.00 56.74 L 145.00 292.81 C145.00,430.50 145.37,529.11 145.89,529.43 C146.39,529.74 151.45,530.90 157.14,532.02 C179.43,536.39 211.27,545.91 233.63,554.88 C265.75,567.78 301.74,586.62 326.50,603.50 C339.84,612.59 349.52,619.40 353.50,622.49 C383.63,645.87 396.20,656.46 425.78,683.34 C441.11,697.27 463.28,720.22 475.12,734.41 C478.60,738.58 481.80,742.00 482.23,742.00 C482.65,742.00 483.00,713.94 483.00,679.65 ZM 538.90 724.95 C586.88,671.73 656.08,615.18 712.00,583.48 C719.89,579.01 751.46,563.00 752.39,563.00 C752.61,563.00 756.78,561.12 761.65,558.82 C766.52,556.51 771.17,554.51 772.00,554.37 C772.83,554.22 777.33,552.70 782.00,550.97 C800.19,544.26 832.82,535.12 850.00,531.92 C853.58,531.26 857.29,530.31 858.25,529.82 C859.91,528.98 860.00,516.70 860.00,293.33 L 860.00 57.72 L 851.25 58.42 C838.27,59.46 806.37,64.62 791.53,68.09 C750.42,77.69 713.29,91.36 676.50,110.43 C636.26,131.29 606.52,152.28 572.50,183.81 C558.04,197.22 537.49,220.37 538.54,222.07 C538.86,222.58 540.66,223.00 542.56,223.00 C547.72,223.00 567.93,227.50 579.38,231.20 C593.46,235.74 618.52,248.42 630.50,257.06 C649.35,270.65 664.86,286.32 677.35,304.41 C685.39,316.06 687.66,320.07 693.78,333.50 C706.67,361.79 712.25,386.94 712.41,417.50 L 712.50 434.50 L 700.85 434.78 L 689.20 435.06 L 688.54 442.28 C686.01,470.13 681.46,487.61 670.55,511.39 C656.87,541.19 631.27,570.52 603.06,588.73 C594.59,594.21 578.99,602.23 569.51,605.99 C560.21,609.69 542.09,614.44 531.24,616.03 L 523.00 617.23 L 522.83 632.37 C522.34,675.47 522.40,742.00 522.93,742.00 C523.26,742.00 530.45,734.33 538.90,724.95 ZM 530.50 588.54 C565.77,581.06 593.37,565.93 617.59,540.78 C640.19,517.31 654.62,488.06 659.52,455.76 C661.51,442.64 661.48,435.40 659.42,434.61 C658.55,434.27 622.55,434.00 579.42,434.00 L 501.01 434.00 L 500.76 353.75 L 500.50 273.50 L 492.00 273.79 C464.09,274.75 432.27,285.82 408.75,302.74 C393.63,313.61 376.75,331.28 366.83,346.60 C362.71,352.96 355.16,368.42 352.02,376.94 C346.18,392.79 343.74,406.74 343.23,427.22 C342.72,447.51 343.58,456.33 347.58,471.69 C358.08,512.11 383.91,546.42 420.45,568.47 C438.69,579.47 458.30,586.26 482.50,589.96 C491.81,591.38 521.19,590.51 530.50,588.54 ZM 685.50 401.75 C683.25,375.72 675.31,351.56 661.64,329.14 C634.06,283.90 589.83,254.96 537.68,248.04 C533.38,247.47 528.99,247.00 527.93,247.00 C526.04,247.00 526.00,248.68 526.00,328.00 L 526.00 409.00 L 606.06 409.00 L 686.12 409.00 L 685.50 401.75 Z" fill="rgb(253,253,254)"/>
</g>
</svg>